<mxfile host="65bd71144e">
    <diagram id="jefDxpo3mZHkd5KiJRu-" name="Page-1">
        <mxGraphModel dx="988" dy="529" grid="1" gridSize="10" guides="1" tooltips="1" connect="1" arrows="1" fold="1" page="1" pageScale="1" pageWidth="850" pageHeight="1100" math="0" shadow="0">
            <root>
                <mxCell id="0"/>
                <mxCell id="1" parent="0"/>
                <mxCell id="3" value="" style="rounded=0;whiteSpace=wrap;html=1;" parent="1" vertex="1">
                    <mxGeometry x="70" y="60" width="490" height="320" as="geometry"/>
                </mxCell>
                <mxCell id="5" value="total time Spent in project" style="rounded=0;whiteSpace=wrap;html=1;" parent="1" vertex="1">
                    <mxGeometry x="120" y="130" width="120" height="60" as="geometry"/>
                </mxCell>
                <mxCell id="6" value="Time spent in session" style="rounded=0;whiteSpace=wrap;html=1;" parent="1" vertex="1">
                    <mxGeometry x="330" y="80" width="120" height="60" as="geometry"/>
                </mxCell>
                <mxCell id="8" value="current project name" style="rounded=0;whiteSpace=wrap;html=1;" parent="1" vertex="1">
                    <mxGeometry x="120" y="80" width="120" height="40" as="geometry"/>
                </mxCell>
                <mxCell id="9" value="Session log: date + time + current todo-list" style="rounded=0;whiteSpace=wrap;html=1;" parent="1" vertex="1">
                    <mxGeometry x="120" y="290" width="230" height="70" as="geometry"/>
                </mxCell>
                <mxCell id="11" value="todo-list" style="rounded=0;whiteSpace=wrap;html=1;" parent="1" vertex="1">
                    <mxGeometry x="120" y="210" width="230" height="60" as="geometry"/>
                </mxCell>
                <mxCell id="12" value="choose project" style="text;html=1;strokeColor=none;fillColor=none;align=center;verticalAlign=middle;whiteSpace=wrap;rounded=0;" vertex="1" parent="1">
                    <mxGeometry y="85" width="45" height="30" as="geometry"/>
                </mxCell>
                <mxCell id="13" value="" style="endArrow=classic;html=1;entryX=0;entryY=0.5;entryDx=0;entryDy=0;" edge="1" parent="1" source="12" target="8">
                    <mxGeometry width="50" height="50" relative="1" as="geometry">
                        <mxPoint x="390" y="220" as="sourcePoint"/>
                        <mxPoint x="440" y="170" as="targetPoint"/>
                    </mxGeometry>
                </mxCell>
                <mxCell id="15" value="editable&lt;br&gt;scrollable" style="text;html=1;strokeColor=none;fillColor=none;align=center;verticalAlign=middle;whiteSpace=wrap;rounded=0;" vertex="1" parent="1">
                    <mxGeometry y="225" width="60" height="30" as="geometry"/>
                </mxCell>
                <mxCell id="16" value="" style="endArrow=classic;html=1;entryX=0;entryY=0.5;entryDx=0;entryDy=0;" edge="1" parent="1" source="15" target="11">
                    <mxGeometry width="50" height="50" relative="1" as="geometry">
                        <mxPoint x="390" y="210" as="sourcePoint"/>
                        <mxPoint x="440" y="160" as="targetPoint"/>
                    </mxGeometry>
                </mxCell>
                <mxCell id="18" value="start stop timer" style="text;html=1;strokeColor=none;fillColor=none;align=center;verticalAlign=middle;whiteSpace=wrap;rounded=0;" vertex="1" parent="1">
                    <mxGeometry x="360" y="10" width="60" height="30" as="geometry"/>
                </mxCell>
                <mxCell id="19" value="" style="endArrow=classic;html=1;entryX=0.5;entryY=0;entryDx=0;entryDy=0;" edge="1" parent="1" source="18" target="6">
                    <mxGeometry width="50" height="50" relative="1" as="geometry">
                        <mxPoint x="390" y="160" as="sourcePoint"/>
                        <mxPoint x="450" y="110" as="targetPoint"/>
                    </mxGeometry>
                </mxCell>
                <mxCell id="20" value="editable&lt;br&gt;scrollable" style="text;html=1;strokeColor=none;fillColor=none;align=center;verticalAlign=middle;whiteSpace=wrap;rounded=0;" vertex="1" parent="1">
                    <mxGeometry y="310" width="60" height="30" as="geometry"/>
                </mxCell>
                <mxCell id="21" value="" style="endArrow=classic;html=1;entryX=0;entryY=0.5;entryDx=0;entryDy=0;" edge="1" parent="1" source="20" target="9">
                    <mxGeometry width="50" height="50" relative="1" as="geometry">
                        <mxPoint x="390" y="295" as="sourcePoint"/>
                        <mxPoint x="350" y="325" as="targetPoint"/>
                    </mxGeometry>
                </mxCell>
                <mxCell id="22" value="import Session Log&lt;br&gt;+ todo-list" style="rounded=0;whiteSpace=wrap;html=1;" vertex="1" parent="1">
                    <mxGeometry x="450" y="300" width="70" height="50" as="geometry"/>
                </mxCell>
                <mxCell id="23" value="save" style="rounded=0;whiteSpace=wrap;html=1;" vertex="1" parent="1">
                    <mxGeometry x="480" y="95" width="50" height="30" as="geometry"/>
                </mxCell>
                <mxCell id="26" value="" style="endArrow=classic;html=1;" edge="1" parent="1">
                    <mxGeometry width="50" height="50" relative="1" as="geometry">
                        <mxPoint x="600" y="109.66" as="sourcePoint"/>
                        <mxPoint x="530" y="109.66" as="targetPoint"/>
                    </mxGeometry>
                </mxCell>
                <mxCell id="29" value="saves time to log" style="text;html=1;strokeColor=none;fillColor=none;align=center;verticalAlign=middle;whiteSpace=wrap;rounded=0;" vertex="1" parent="1">
                    <mxGeometry x="600" y="95" width="60" height="30" as="geometry"/>
                </mxCell>
                <mxCell id="31" value="" style="edgeStyle=none;html=1;" edge="1" parent="1" source="30" target="29">
                    <mxGeometry relative="1" as="geometry"/>
                </mxCell>
                <mxCell id="30" value="confirm if current project is the one you want to save to" style="text;html=1;strokeColor=none;fillColor=none;align=center;verticalAlign=middle;whiteSpace=wrap;rounded=0;" vertex="1" parent="1">
                    <mxGeometry x="680" y="57.5" width="60" height="105" as="geometry"/>
                </mxCell>
                <mxCell id="33" value="export Session Log + todo-list" style="rounded=0;whiteSpace=wrap;html=1;" vertex="1" parent="1">
                    <mxGeometry x="450" y="240" width="70" height="50" as="geometry"/>
                </mxCell>
                <mxCell id="34" value="1." style="text;html=1;align=center;verticalAlign=middle;whiteSpace=wrap;rounded=0;labelBorderColor=none;fillColor=none;strokeColor=none;fontColor=#A1A1A1;labelBackgroundColor=#372E42;" vertex="1" parent="1">
                    <mxGeometry x="330" y="27.5" width="20" height="30" as="geometry"/>
                </mxCell>
                <mxCell id="35" value="2." style="text;html=1;align=center;verticalAlign=middle;whiteSpace=wrap;rounded=0;labelBorderColor=none;fillColor=none;strokeColor=none;fontColor=#A1A1A1;labelBackgroundColor=#372E42;" vertex="1" parent="1">
                    <mxGeometry x="480" y="30" width="20" height="30" as="geometry"/>
                </mxCell>
                <mxCell id="36" value="3." style="text;html=1;align=center;verticalAlign=middle;whiteSpace=wrap;rounded=0;labelBorderColor=none;fillColor=none;strokeColor=none;fontColor=#A1A1A1;labelBackgroundColor=#372E42;" vertex="1" parent="1">
                    <mxGeometry x="45" y="65" width="20" height="30" as="geometry"/>
                </mxCell>
                <mxCell id="37" value="4." style="text;html=1;align=center;verticalAlign=middle;whiteSpace=wrap;rounded=0;labelBorderColor=none;fillColor=none;strokeColor=none;fontColor=#A1A1A1;labelBackgroundColor=#372E42;" vertex="1" parent="1">
                    <mxGeometry x="45" y="132.5" width="20" height="30" as="geometry"/>
                </mxCell>
                <mxCell id="40" value="" style="endArrow=classic;html=1;fontColor=#A1A1A1;entryX=1;entryY=0;entryDx=0;entryDy=0;" edge="1" parent="1" target="22">
                    <mxGeometry relative="1" as="geometry">
                        <mxPoint x="600" y="300" as="sourcePoint"/>
                        <mxPoint x="500" y="200" as="targetPoint"/>
                    </mxGeometry>
                </mxCell>
                <mxCell id="44" value="integrate data in current project data" style="text;html=1;strokeColor=none;fillColor=none;align=center;verticalAlign=middle;whiteSpace=wrap;rounded=0;" vertex="1" parent="1">
                    <mxGeometry x="600" y="280" width="60" height="30" as="geometry"/>
                </mxCell>
                <mxCell id="47" value="5." style="text;html=1;align=center;verticalAlign=middle;whiteSpace=wrap;rounded=0;labelBorderColor=none;fillColor=none;strokeColor=none;fontColor=#A1A1A1;labelBackgroundColor=#372E42;" vertex="1" parent="1">
                    <mxGeometry x="50" y="340" width="20" height="30" as="geometry"/>
                </mxCell>
                <mxCell id="48" value="6." style="text;html=1;align=center;verticalAlign=middle;whiteSpace=wrap;rounded=0;labelBorderColor=none;fillColor=none;strokeColor=none;fontColor=#A1A1A1;labelBackgroundColor=#372E42;" vertex="1" parent="1">
                    <mxGeometry x="45" y="250" width="20" height="30" as="geometry"/>
                </mxCell>
                <mxCell id="49" value="7." style="text;html=1;align=center;verticalAlign=middle;whiteSpace=wrap;rounded=0;labelBorderColor=none;fillColor=none;strokeColor=none;fontColor=#A1A1A1;labelBackgroundColor=#372E42;" vertex="1" parent="1">
                    <mxGeometry x="570" y="230" width="20" height="30" as="geometry"/>
                </mxCell>
            </root>
        </mxGraphModel>
    </diagram>
</mxfile>